<svg width="150" height="150" viewBox="0 0 150 150" fill="none" xmlns="http://www.w3.org/2000/svg">
<path d="M41.668 0C18.6914 0 0 18.6914 0 41.668V108.332C0 131.309 18.6914 150 41.668 150H108.332C131.309 150 150 131.309 150 108.332V41.668C150 18.6914 131.309 0 108.332 0H41.668ZM41.668 16.668H108.332C122.117 16.668 133.332 27.8828 133.332 41.668V108.332C133.332 122.117 122.117 133.332 108.332 133.332H41.668C27.8828 133.332 16.668 122.117 16.668 108.332V41.668C16.668 27.8828 27.8828 16.668 41.668 16.668ZM116.668 25C116.121 25 115.578 25.0547 115.039 25.1602C114.504 25.2656 113.984 25.4258 113.477 25.6328C112.973 25.8438 112.492 26.1016 112.035 26.4062C111.582 26.707 111.16 27.0547 110.773 27.4414C110.387 27.8281 110.043 28.25 109.738 28.7031C109.434 29.1602 109.176 29.6406 108.969 30.1445C108.758 30.6484 108.602 31.1719 108.492 31.707C108.387 32.2461 108.332 32.7852 108.332 33.332C108.332 33.8789 108.387 34.4219 108.492 34.9609C108.602 35.4961 108.758 36.0156 108.969 36.5234C109.176 37.0273 109.434 37.5078 109.738 37.9648C110.043 38.418 110.387 38.8398 110.773 39.2266C111.16 39.6133 111.582 39.957 112.035 40.2617C112.492 40.5664 112.973 40.8242 113.477 41.0312C113.984 41.2422 114.504 41.3984 115.039 41.5078C115.578 41.6133 116.121 41.668 116.668 41.668C117.215 41.668 117.754 41.6133 118.293 41.5078C118.828 41.3984 119.352 41.2422 119.855 41.0312C120.359 40.8242 120.84 40.5664 121.297 40.2617C121.75 39.957 122.172 39.6133 122.559 39.2266C122.945 38.8398 123.293 38.418 123.594 37.9648C123.898 37.5078 124.156 37.0273 124.367 36.5234C124.574 36.0156 124.734 35.4961 124.84 34.9609C124.945 34.4219 125 33.8789 125 33.332C125 32.7852 124.945 32.2461 124.84 31.707C124.734 31.1719 124.574 30.6484 124.367 30.1445C124.156 29.6406 123.898 29.1602 123.594 28.7031C123.293 28.25 122.945 27.8281 122.559 27.4414C122.172 27.0547 121.75 26.707 121.297 26.4062C120.84 26.1016 120.359 25.8438 119.855 25.6328C119.352 25.4258 118.828 25.2656 118.293 25.1602C117.754 25.0547 117.215 25 116.668 25ZM75 33.332C52.0234 33.332 33.332 52.0234 33.332 75C33.332 97.9766 52.0234 116.668 75 116.668C97.9766 116.668 116.668 97.9766 116.668 75C116.668 52.0234 97.9766 33.332 75 33.332ZM75 50C88.7852 50 100 61.2148 100 75C100 88.7852 88.7852 100 75 100C61.2148 100 50 88.7852 50 75C50 61.2148 61.2148 50 75 50Z" fill="black"/>
</svg>
