<svg width="90" height="90" viewBox="0 0 90 90" fill="none" xmlns="http://www.w3.org/2000/svg">
<path d="M86.0976 66.7139C83.1366 63.6392 80.0151 60.7232 76.7461 57.9783C72.6618 54.4887 69.0283 55.052 66.1417 57.5687C63.2447 60.0787 61.7929 61.3292 58.8817 63.8204C58.213 64.3773 57.3655 64.6735 56.4955 64.6545C55.6255 64.6355 54.7917 64.3026 54.1479 63.7171C49.4516 59.6644 30.3352 40.5482 26.2826 35.8519C25.6973 35.208 25.3644 34.3742 25.3454 33.5043C25.3264 32.6343 25.6226 31.7867 26.1793 31.1179C28.6706 28.2066 29.921 26.7546 32.4309 23.8578C34.9475 20.9711 35.5109 17.3376 32.0218 13.2535C29.2769 9.98455 26.3611 6.86312 23.2864 3.9023C18.2306 -1.05943 13.3463 -1.2971 8.76065 3.23238C5.90414 6.22556 3.5635 9.67151 1.83389 13.4301C-6.44611 31.0643 15.4103 54.206 25.6022 64.3979C35.7945 74.5901 58.936 96.4464 76.5702 88.1663C80.3288 86.4367 83.7747 84.096 86.7677 81.2394C91.297 76.6542 91.0595 71.7699 86.0976 66.7139Z" fill="black"/>
</svg>
