<svg width="337" height="225" viewBox="0 0 337 225" fill="none" xmlns="http://www.w3.org/2000/svg">
<path fill-rule="evenodd" clip-rule="evenodd" d="M262.174 74.72C303.314 74.72 336.6 108.344 336.6 149.44C336.6 190.536 302.94 224.16 261.8 224.16C220.66 224.16 187 190.536 187 149.44C187 66.8744 253.946 0 336.6 0C336.6 0 287.606 18.3064 262.174 74.72ZM149.6 149.44C149.6 190.536 115.94 224.16 74.8 224.16C33.66 224.16 0 190.536 0 149.44C0 66.8744 66.946 0 149.6 0C149.6 0 100.606 18.3064 75.174 74.72C116.314 74.72 149.6 108.344 149.6 149.44Z" fill="black"/>
</svg>
